<svg width="62" height="55" viewBox="0 0 62 55" fill="none" xmlns="http://www.w3.org/2000/svg">
<path d="M57 27.5C57 41.031 45.3594 52 31 52C16.6406 52 5 41.031 5 27.5C5 13.969 16.6406 3 31 3C45.3594 3 57 13.969 57 27.5Z" fill="#642AAD"/>
<g filter="url(#filter0_d)">
<path d="M49.1362 6.1633C47.3048 2.72516 59.6246 27.0319 49.1362 27.0319C38.6478 27.0319 8.91492 16.7024 7.10137 16.3903C5.28782 16.0782 16.7781 26.0308 7.10137 32.8364C-2.57532 39.642 22.1097 36.4706 32.3873 29.6578M32.3873 29.6578C36.98 23.9376 36.5338 10.1712 35.3956 6.1633C34.2573 2.15541 31.5743 1.74081 30.192 6.1633C28.8098 10.5858 28.9087 22.7572 32.3873 29.6578ZM32.3873 29.6578C32.3873 29.6578 49.5427 50.6249 49.1362 50.072" stroke="white" stroke-width="4"/>
</g>
<defs>
<filter id="filter0_d" x="-2.10461" y="-1.00012" width="62.5205" height="60.9491" filterUnits="userSpaceOnUse" color-interpolation-filters="sRGB">
<feFlood flood-opacity="0" result="BackgroundImageFix"/>
<feColorMatrix in="SourceAlpha" type="matrix" values="0 0 0 0 0 0 0 0 0 0 0 0 0 0 0 0 0 0 127 0"/>
<feOffset dy="3"/>
<feGaussianBlur stdDeviation="2.5"/>
<feColorMatrix type="matrix" values="0 0 0 0 0 0 0 0 0 0 0 0 0 0 0 0 0 0 0.25 0"/>
<feBlend mode="normal" in2="BackgroundImageFix" result="effect1_dropShadow"/>
<feBlend mode="normal" in="SourceGraphic" in2="effect1_dropShadow" result="shape"/>
</filter>
</defs>
</svg>

